PathFileType	4	(X/Y/Z)	S01_0003_Gait_markers.trc
DataRate	CameraRate	NumFrames	NumMarkers	Units	OrigDataRate	OrigDataStartFrame	OrigNumFrames
250.000000	250.000000	4	54	mm	250.000000	274	314
Frame#	Time	HEAD_ANT			R_HEAD			L_HEAD			C7			R_BACK			L_BACK			STERNUM			R_ACROMION			R_HUM_PROX			R_HUM_ANT			R_HUM_POST			R_ELBOW_LAT			R_ELBOW_MED			R_FOREARM			R_WIRST_LAT			R_WRITS_MED			R_HAND			L_ACROMION			L_HUM_PROX			L_HUM_ANT			L_HUM_POST			L_ELBOW_LAT			L_ELBOW_MED			L_FOREARM			L_WRIST_LAT			L_WIRST_MED			L_HAND			R_ILIAC			SACRUM			L_ILIAC			R_GTROCH			R_THIGH__1			R_THIGH_2			R_THIGH_3			R_THIGH_4			R_SHANK_1			R_SHANK_2			R_SHANK_3			R_SHANK_4			R_HEEL			R_FOOT_LAT			R_FOOT_MED			L_GTROCH			L_THIGH_1			L_THIGH_2			L_THIGH_3			L_THIGH_4			L_SHANK_1			L_SHANK_2			L_SHANK_3			L_SHANK_4			L_HEEL			L_FOOT_LAT			L_FOOT_MED			
		X1	Y1	Z1	X2	Y2	Z2	X3	Y3	Z3	X4	Y4	Z4	X5	Y5	Z5	X6	Y6	Z6	X7	Y7	Z7	X8	Y8	Z8	X9	Y9	Z9	X10	Y10	Z10	X11	Y11	Z11	X12	Y12	Z12	X13	Y13	Z13	X14	Y14	Z14	X15	Y15	Z15	X16	Y16	Z16	X17	Y17	Z17	X18	Y18	Z18	X19	Y19	Z19	X20	Y20	Z20	X21	Y21	Z21	X22	Y22	Z22	X23	Y23	Z23	X24	Y24	Z24	X25	Y25	Z25	X26	Y26	Z26	X27	Y27	Z27	X28	Y28	Z28	X29	Y29	Z29	X30	Y30	Z30	X31	Y31	Z31	X32	Y32	Z32	X33	Y33	Z33	X34	Y34	Z34	X35	Y35	Z35	X36	Y36	Z36	X37	Y37	Z37	X38	Y38	Z38	X39	Y39	Z39	X40	Y40	Z40	X41	Y41	Z41	X42	Y42	Z42	X43	Y43	Z43	X44	Y44	Z44	X45	Y45	Z45	X46	Y46	Z46	X47	Y47	Z47	X48	Y48	Z48	X49	Y49	Z49	X50	Y50	Z50	X51	Y51	Z51	X52	Y52	Z52	X53	Y53	Z53	X54	Y54	Z54	

275	1.096	1728.460205078125	1710.444458007812	-340.7288208007809	1665.5009765625	1661.044311523438	-265.8275756835934	1669.728881835938	1663.474365234375	-411.9206848144528	1526.286254882812	1493.875366210938	-342.6280517578122	1451.837768554688	1295.478759765625	-277.2370910644528	1458.41552734375	1298.296752929688	-417.0285339355466	1707.15966796875	1332.562377929688	-336.6130371093747	1600.082763671875	1444.37890625	-165.6106262207028	1556.246704101562	1282.678466796875	-77.42410278320284	1617.207275390625	1197.021118164062	-70.14315032958957	1495.489990234375	1199.871948242188	-69.36653137207004	1542.361450195312	1092.458129882812	-58.86528396606421	1525.121459960938	1088.422607421875	-140.7472686767576	1643.353393554688	911.3959350585938	-48.57851409912089	1689.344848632812	847.6198120117188	-82.79116821289044	1616.011962890625	821.4287109375	-56.13986206054669	1684.80810546875	755.9443359375	-32.18780517578108	1615.535400390625	1447.732543945312	-507.086517333984	1613.760131835938	1279.9423828125	-599.9008178710935	1679.760009765625	1203.679931640625	-588.293518066406	1564.635131835938	1198.696533203125	-632.6732788085935	1630.136352539062	1097.65234375	-630.2355957031248	1571.384033203125	1087.10791015625	-579.2726440429685	1759.197143554688	945.0178833007814	-579.3780517578123	1791.039672851562	894.8889160156251	-517.890686035156	1761.811401367188	859.9921264648439	-582.2139892578123	1845.04052734375	823.5454101562501	-553.9597167968748	1613.332397460938	1040.625854492188	-167.7240447998045	1478.563354492188	1020.163391113281	-327.4567871093748	1593.213989257812	1041.865112304688	-511.9750976562498	1578.076049804688	889.7945556640625	-153.2695465087889	1700.406616210938	626.0936889648438	-175.3913421630858	1747.580810546875	661.296630859375	-171.4348907470702	1787.09814453125	569.276123046875	-212.0342864990233	1725.156494140625	551.3434448242188	-200.918975830078	1796.741455078125	335.5761718750001	-198.9545135498046	1855.945190429688	338.2185668945313	-212.7645721435546	1885.67626953125	259.0921020507813	-230.9713439941406	1823.866455078125	239.9175567626954	-221.5496520996093	1872.809204101562	32.05229568481452	-309.8024597167969	2034.282348632812	64.34131622314459	-228.0836791992187	2070.2470703125	103.7403869628907	-315.9474487304688	1543.39306640625	940.3939208984376	-512.9967651367185	1541.04150390625	648.1497802734376	-500.1433715820311	1495.588134765625	683.7073974609376	-511.6720275878905	1452.815673828125	592.5903320312501	-479.2174682617186	1514.097290039062	574.9126586914064	-473.9805908203124	1368.4375	334.9842224121095	-456.5892333984374	1307.853271484375	339.0114135742189	-457.7875976562499	1270.814331054688	262.2480773925782	-436.7898559570312	1331.4873046875	242.2547607421876	-430.0179748535156	1160.332641601562	107.2915954589845	-357.616943359375	1313.9140625	19.66752624511728	-425.67919921875	1356.510498046875	28.80063438415534	-321.7718200683594	
276	1.1	1734.207885742188	1709.742065429688	-340.3546447753902	1671.201416015625	1660.374755859375	-265.4657592773434	1675.427856445312	1662.826904296875	-411.5541992187497	1532.134399414062	1493.27197265625	-342.114349365234	1457.830444335938	1294.80517578125	-277.038635253906	1464.120239257812	1297.619873046875	-416.550842285156	1712.985107421875	1331.89697265625	-336.1867370605466	1606.0107421875	1443.550415039062	-165.1856994628903	1562.046020507812	1281.831420898438	-77.39527893066378	1623.071655273438	1196.129272460938	-70.02706146240207	1501.309326171875	1198.936767578125	-69.01041412353489	1548.06884765625	1091.520751953125	-58.66580581665015	1530.722778320312	1087.54150390625	-140.8477630615232	1649.194580078125	910.5714721679688	-48.40816879272441	1694.7705078125	846.5046997070312	-82.72998809814435	1621.40576171875	820.3345336914062	-56.42573165893536	1689.843017578125	754.7479248046875	-32.41360855102522	1621.327270507812	1447.061645507812	-506.7009277343747	1619.516845703125	1279.20849609375	-599.370666503906	1685.553588867188	1202.9716796875	-587.969055175781	1570.24560546875	1197.934326171875	-632.0665893554685	1635.78173828125	1097.042358398438	-629.862121582031	1577.62744140625	1086.36572265625	-578.4745483398435	1764.990844726562	944.0993041992189	-579.228088378906	1796.817626953125	893.9251098632814	-517.8874511718748	1767.413452148438	859.2391967773439	-582.2357177734373	1850.649047851562	822.5460205078126	-554.2843627929685	1618.98828125	1039.948852539062	-167.512023925781	1484.733520507812	1019.302917480469	-327.4116210937498	1599.069213867188	1041.337036132812	-511.9333190917966	1584.359497070312	889.2485961914062	-153.3203735351561	1708.027587890625	625.5771484375	-176.9161987304686	1754.845336914062	661.3107299804688	-172.2223968505858	1794.807250976562	569.47314453125	-212.800323486328	1732.931518554688	551.41259765625	-202.1367187499999	1803.670043945312	335.4687805175782	-199.415054321289	1862.618408203125	337.3564453125001	-213.9322662353515	1891.5654296875	257.8492431640626	-232.1307678222656	1829.635375976562	239.4066772460938	-222.2630767822265	1876.278686523438	30.79034042358405	-310.5277709960938	2038.014038085938	62.78556442260747	-228.3554382324219	2074.216796875	101.3374710083009	-316.734375	1549.483764648438	939.6749877929689	-512.9447631835935	1547.1787109375	647.6248779296876	-500.295196533203	1501.559936523438	683.2697143554689	-511.8084716796873	1459.036865234375	592.0943603515626	-479.565460205078	1519.960083007812	574.2246704101564	-474.4777526855468	1372.650146484375	335.0183105468751	-457.0984191894531	1311.957885742188	339.5991210937501	-458.6569519042968	1274.040771484375	263.3301391601564	-437.3370666503906	1334.619140625	242.765609741211	-430.8031616210937	1161.677978515625	109.7495727539063	-358.682373046875	1314.101806640625	19.29023933410654	-425.3377990722656	1356.685913085938	28.95157241821296	-322.0473327636719	
277	1.104	1739.8740234375	1709.14111328125	-339.8174133300777	1676.930053710938	1659.694091796875	-264.9989013671872	1681.126953125	1662.22021484375	-411.1479492187497	1537.929931640625	1492.56640625	-341.6802368164059	1463.913330078125	1294.04638671875	-276.9952087402341	1470.030029296875	1296.855102539062	-416.3510131835935	1719.291137695312	1331.4345703125	-336.1963806152341	1611.803833007812	1442.816650390625	-164.8283538818356	1568.06884765625	1280.978637695312	-76.95700836181612	1628.9814453125	1195.24951171875	-69.93886566162082	1507.328979492188	1198.162963867188	-68.69600677490207	1553.914428710938	1090.864135742188	-58.70145416259741	1536.203735351562	1086.770874023438	-140.6511383056638	1654.3310546875	909.4116821289062	-48.59469985961894	1700.349853515625	845.45654296875	-82.64620971679669	1626.818359375	819.4366455078125	-56.53013992309552	1694.996337890625	753.6072387695312	-32.51470947265608	1627.4169921875	1446.386474609375	-506.374603271484	1625.353393554688	1278.610473632813	-599.0455932617185	1691.61328125	1202.297119140625	-587.6325073242185	1576.101318359375	1197.215576171875	-631.4907226562498	1641.6982421875	1096.252563476563	-629.3214721679685	1583.247924804688	1085.71044921875	-578.0380249023435	1770.64990234375	943.2600708007814	-579.2335205078123	1802.536376953125	892.8609619140626	-518.032775878906	1773.101684570312	858.3652343750001	-582.3100585937498	1856.226318359375	821.5725708007814	-554.5433349609373	1624.689086914062	1039.340087890625	-167.4281005859373	1491.124877929688	1018.437561035156	-327.1835632324216	1604.794311523438	1040.701782226562	-511.6166381835935	1590.897338867188	888.799560546875	-153.3652496337889	1715.260009765625	625.7161865234375	-176.821319580078	1761.975830078125	661.1551513671875	-172.6940460205077	1802.497924804688	569.4452514648438	-213.4074707031249	1740.380126953125	550.9210815429688	-202.9318847656249	1810.29345703125	335.0526733398438	-200.2040710449218	1869.718505859375	336.6164245605469	-214.7986907958984	1897.216674804688	256.7685852050782	-233.485122680664	1835.410888671875	238.8095703125001	-222.8369598388671	1879.311157226562	29.55987167358405	-311.3341979980469	2041.302490234375	60.40744400024419	-229.6570892333984	2077.944580078125	98.72851562500007	-317.7969970703125	1555.588134765625	939.1189575195314	-512.751770019531	1553.530029296875	647.0816040039064	-500.5244140624998	1507.828247070312	682.6627807617189	-511.9939575195311	1465.135986328125	591.3059082031251	-479.721466064453	1526.4072265625	573.6232299804689	-474.6469421386718	1376.975219726562	335.1064453125001	-457.4659423828124	1316.269775390625	340.292938232422	-459.1263732910156	1277.584228515625	264.7026672363282	-438.2832336425781	1337.828491210938	243.1007537841798	-431.3436584472656	1163.170288085938	112.459701538086	-359.7959594726562	1314.253051757812	19.36484718322763	-425.4472351074219	1356.793701171875	29.10370445251472	-322.3578186035156	
278	1.108	1745.658569335938	1708.621337890625	-339.4900512695309	1682.690795898438	1659.077026367188	-264.5258178710934	1686.906860351562	1661.625366210938	-410.7551574707028	1543.891967773438	1491.985473632812	-341.1042480468747	1469.884643554688	1293.256225585938	-276.5928649902341	1476.016357421875	1296.28271484375	-416.106994628906	1725.330688476562	1330.772094726562	-335.8921813964841	1617.719970703125	1442.087768554688	-164.3972015380856	1574.081909179688	1280.14501953125	-76.70784759521456	1634.928955078125	1194.447143554688	-69.71903228759739	1513.270385742188	1197.388061523438	-68.46997070312473	1559.94775390625	1090.010009765625	-58.56578445434546	1542.1806640625	1086.064331054688	-140.4345855712888	1659.851928710938	908.5089721679688	-48.55752944946269	1705.8876953125	844.4864501953125	-82.57104492187482	1632.274169921875	818.5337524414062	-56.60908508300763	1700.270629882812	752.5418701171875	-32.59463882446272	1633.262817382812	1445.764404296875	-505.8314819335934	1631.128540039062	1277.912841796875	-598.5916748046873	1697.422241210938	1201.620971679688	-587.318420410156	1581.922973632812	1196.642211914063	-631.1510009765623	1647.301391601562	1095.748657226563	-628.8668212890623	1589.214965820312	1085.071533203125	-577.443908691406	1776.348266601562	942.4341430664064	-579.2701416015623	1808.342651367188	891.9269409179689	-518.1308593749998	1778.544189453125	857.5446777343751	-582.2877197265623	1861.826782226562	820.6146240234376	-554.8369140624998	1630.316528320312	1038.795288085938	-167.2153167724607	1497.5	1017.5439453125	-327.1261291503904	1610.515502929688	1039.901123046875	-511.5050048828123	1597.513793945312	888.2496337890625	-153.6884307861326	1722.84423828125	625.2105102539062	-178.2135009765624	1769.373168945312	661.0293579101562	-173.3073120117186	1810.047973632812	569.572998046875	-214.1740264892577	1748.153198242188	550.7431030273438	-203.6737060546874	1816.917358398438	334.9679870605469	-200.4965667724609	1875.712768554688	335.3493041992188	-216.2443084716796	1902.783081054688	255.5096130371094	-234.6015319824218	1840.939331054688	238.0550231933594	-223.5314178466796	1881.992309570312	28.91271209716804	-311.8888244628906	2044.315307617188	58.11938095092778	-230.7215728759766	2081.18701171875	95.95354461669929	-318.85986328125	1561.910400390625	938.4120483398439	-512.5380859374998	1559.954345703125	646.5606079101564	-500.6022949218748	1514.437622070312	682.1484985351564	-512.2105102539061	1471.586059570312	590.8286743164064	-480.1762695312499	1532.567138671875	572.9588012695314	-475.2218017578124	1381.364501953125	335.3025817871095	-458.2814331054687	1320.825927734375	341.3793945312501	-460.0917358398437	1281.093505859375	265.863983154297	-439.0432128906249	1340.989013671875	243.8073730468751	-432.1350708007812	1164.759765625	115.3409729003907	-360.8456115722656	1314.5107421875	19.44472503662119	-425.5396728515625	1356.918090820312	29.24654388427741	-322.6375427246094	
